HIERARCHY
ROOT hip
{
  OFFSET 0 0 0
  CHANNELS 6 Xposition Yposition Zposition Zrotation Yrotation Xrotation
  JOINT abdomen
  {
    OFFSET 0 20.6881 -0.73152
    CHANNELS 3 Zrotation Xrotation Yrotation
    JOINT chest
    {
      OFFSET 0 11.7043 -0.48768
      CHANNELS 3 Zrotation Xrotation Yrotation
      JOINT neck
      {
        OFFSET 0 22.1894 -2.19456
        CHANNELS 3 Zrotation Xrotation Yrotation
        JOINT head
        {
          OFFSET -0.24384 7.07133 1.2192
          CHANNELS 3 Zrotation Xrotation Yrotation
          JOINT leftEye
          {
            OFFSET 4.14528 8.04674 8.04672
            CHANNELS 3 Zrotation Xrotation Yrotation
            End Site
            {
              OFFSET 1 0 0
            }
          }
          JOINT rightEye
          {
            OFFSET -3.6576 8.04674 8.04672
            CHANNELS 3 Zrotation Xrotation Yrotation
            End Site
            {
              OFFSET 1 0 0
            }
          }
        }
      }
      JOINT rCollar
      {
        OFFSET -2.68224 19.2634 -4.8768
        CHANNELS 3 Zrotation Xrotation Yrotation
        JOINT rShldr
        {
          OFFSET -8.77824 -1.95073 1.46304
          CHANNELS 3 Zrotation Xrotation Yrotation
          JOINT rForeArm
          {
            OFFSET -28.1742 -1.7115 0.48768
            CHANNELS 3 Zrotation Xrotation Yrotation
            JOINT rHand
            {
              OFFSET -22.5879 0.773209 7.07136
              CHANNELS 3 Zrotation Xrotation Yrotation
              JOINT rThumb1
              {
                OFFSET -1.2192 -0.487915 3.41376
                CHANNELS 3 Zrotation Xrotation Yrotation
                JOINT rThumb2
                {
                  OFFSET -3.37035 -0.52449 3.41376
                  CHANNELS 3 Zrotation Xrotation Yrotation
                  End Site
                  {
                    OFFSET -1.78271 -1.18214 1.43049
                  }
                }
              }
              JOINT rIndex1
              {
                OFFSET -7.75947 0.938293 5.60832
                CHANNELS 3 Zrotation Xrotation Yrotation
                JOINT rIndex2
                {
                  OFFSET -2.54057 -0.884171 1.56538
                  CHANNELS 3 Zrotation Xrotation Yrotation
                  End Site
                  {
                    OFFSET -1.62519 -0.234802 1.16502
                  }
                }
              }
              JOINT rMid1
              {
                OFFSET -8.24714 1.18213 3.41376
                CHANNELS 3 Zrotation Xrotation Yrotation
                JOINT rMid2
                {
                  OFFSET -3.10165 -0.590103 1.0647
                  CHANNELS 3 Zrotation Xrotation Yrotation
                  End Site
                  {
                    OFFSET -2.48547 -0.328903 0.83742
                  }
                }
              }
              JOINT rRing1
              {
                OFFSET -8.82822 0.546677 1.51678
                CHANNELS 3 Zrotation Xrotation Yrotation
                JOINT rRing2
                {
                  OFFSET -2.60934 -0.819778 -0.0198488
                  CHANNELS 3 Zrotation Xrotation Yrotation
                  End Site
                  {
                    OFFSET -2.33842 -0.294052 0.168128
                  }
                }
              }
              JOINT rPinky1
              {
                OFFSET -8.27202 -0.0477905 -0.4584
                CHANNELS 3 Zrotation Xrotation Yrotation
                JOINT rPinky2
                {
                  OFFSET -1.82734 -0.647385 -0.700984
                  CHANNELS 3 Zrotation Xrotation Yrotation
                  End Site
                  {
                    OFFSET -1.69225 -0.51767 -0.607171
                  }
                }
              }
            }
          }
        }
      }
      JOINT lCollar
      {
        OFFSET 2.68224 19.2634 -4.8768
        CHANNELS 3 Zrotation Xrotation Yrotation
        JOINT lShldr
        {
          OFFSET 8.77824 -1.95073 1.46304
          CHANNELS 3 Zrotation Xrotation Yrotation
          JOINT lForeArm
          {
            OFFSET 28.1742 -1.7115 0.48768
            CHANNELS 3 Zrotation Xrotation Yrotation
            JOINT lHand
            {
              OFFSET 22.5879 0.773209 7.07136
              CHANNELS 3 Zrotation Xrotation Yrotation
              JOINT lThumb1
              {
                OFFSET 1.2192 -0.487915 3.41376
                CHANNELS 3 Zrotation Xrotation Yrotation
                JOINT lThumb2
                {
                  OFFSET 3.37035 -0.52449 3.41376
                  CHANNELS 3 Zrotation Xrotation Yrotation
                  End Site
                  {
                    OFFSET 1.78271 -1.18214 1.43049
                  }
                }
              }
              JOINT lIndex1
              {
                OFFSET 7.75947 0.938293 5.60832
                CHANNELS 3 Zrotation Xrotation Yrotation
                JOINT lIndex2
                {
                  OFFSET 2.54057 -0.884171 1.56538
                  CHANNELS 3 Zrotation Xrotation Yrotation
                  End Site
                  {
                    OFFSET 1.62519 -0.234802 1.16502
                  }
                }
              }
              JOINT lMid1
              {
                OFFSET 8.24714 1.18213 3.41376
                CHANNELS 3 Zrotation Xrotation Yrotation
                JOINT lMid2
                {
                  OFFSET 3.10165 -0.590103 1.0647
                  CHANNELS 3 Zrotation Xrotation Yrotation
                  End Site
                  {
                    OFFSET 2.48547 -0.328903 0.83742
                  }
                }
              }
              JOINT lRing1
              {
                OFFSET 8.82822 0.546677 1.51678
                CHANNELS 3 Zrotation Xrotation Yrotation
                JOINT lRing2
                {
                  OFFSET 2.60934 -0.819778 -0.0198488
                  CHANNELS 3 Zrotation Xrotation Yrotation
                  End Site
                  {
                    OFFSET 2.33842 -0.294052 0.168128
                  }
                }
              }
              JOINT lPinky1
              {
                OFFSET 8.27202 -0.0477905 -0.4584
                CHANNELS 3 Zrotation Xrotation Yrotation
                JOINT lPinky2
                {
                  OFFSET 1.82734 -0.647385 -0.700984
                  CHANNELS 3 Zrotation Xrotation Yrotation
                  End Site
                  {
                    OFFSET 1.69225 -0.51767 -0.607171
                  }
                }
              }
            }
          }
        }
      }
    }
  }
  JOINT rButtock
  {
    OFFSET -8.77824 4.35084 1.2192
    CHANNELS 3 Zrotation Xrotation Yrotation
    JOINT rThigh
    {
      OFFSET 0 -1.70687 -2.19456
      CHANNELS 3 Zrotation Xrotation Yrotation
      JOINT rShin
      {
        OFFSET 0 -36.8199 0.73152
        CHANNELS 3 Zrotation Xrotation Yrotation
        JOINT rFoot
        {
          OFFSET 0.73152 -45.1104 -5.12064
          CHANNELS 3 Zrotation Xrotation Yrotation
          End Site
          {
            OFFSET -1.1221 -3.69964 12.103
          }
        }
      }
    }
  }
  JOINT lButtock
  {
    OFFSET 8.77824 4.35084 1.2192
    CHANNELS 3 Zrotation Xrotation Yrotation
    JOINT lThigh
    {
      OFFSET 0 -1.70687 -2.19456
      CHANNELS 3 Zrotation Xrotation Yrotation
      JOINT lShin
      {
        OFFSET 0 -36.8199 0.73152
        CHANNELS 3 Zrotation Xrotation Yrotation
        JOINT lFoot
        {
          OFFSET -0.73152 -45.1104 -5.12064
          CHANNELS 3 Zrotation Xrotation Yrotation
          End Site
          {
            OFFSET 1.1221 -3.69964 12.103
          }
        }
      }
    }
  }
}
MOTION
Frames:	9
Frame Time:	0.00833333
283.618 83.282 -23.3563 0.0 0.0 0.0 -2.96295 0.00183638 -0.0799174 -0.816472 0.0169097 -0.141255 6.82886e-14 -1.59028e-15 4.47266e-16 2.04276e-13 3.18055e-15 1.43964e-15 -0.0 0.0 0.0 -0.0 0.0 0.0 3.39432e-14 1.68695e-16 4.96962e-16 7.16536e-13 4.00054e-15 7.95139e-15 1.22977e-11 -3.57474e-12 -4.13472e-14 1.40973e-10 4.32871e-12 1.18635e-12 3.32494e-10 1.62522e-12 2.47447e-12 5.74188e-10 2.80525e-12 4.26751e-12 3.32497e-10 1.62487e-12 2.46493e-12 7.73091 5.47488 0.417314 3.32494e-10 1.62497e-12 2.47765e-12 2.90554 0.965183 0.102902 3.32501e-10 1.62497e-12 2.47924e-12 10.2786 0.731801 0.0259123 3.3249e-10 1.62765e-12 2.49037e-12 2.22167 -0.733487 -0.20892 3.38446e-14 1.66948e-16 9.93923e-17 7.12748e-13 3.6154e-15 6.55989e-15 1.23279e-11 3.79579e-12 1.59028e-14 1.40927e-10 -3.07512e-12 1.14818e-12 3.3247e-10 1.55792e-12 2.48719e-12 5.74181e-10 2.68757e-12 4.28103e-12 3.32462e-10 1.56125e-12 2.49355e-12 -7.73091 5.47488 -0.417314 3.32471e-10 1.55807e-12 2.48401e-12 -2.90554 0.965183 -0.102902 3.32463e-10 1.55807e-12 2.48163e-12 -10.2786 0.731801 -0.0259123 3.32475e-10 1.55927e-12 2.47447e-12 -2.22167 -0.733487 0.20892 -2.03217e-16 0.0 -3.88251e-19 -1.77161 -1.93398 0.012205 -0.00867315 -2.07864 -0.0712865 -0.478313 3.99976 0.135357 2.03217e-16 0.0 3.88251e-19 -2.72746 -9.0434 0.303154 -0.00827406 10.7979 -0.214971 0.537232 -1.7672 -0.0240821
276.527 82.3224 -29.427 -50.6206 -85.8223 48.8781 -1.97409 1.45327 -0.443922 -1.36459 0.463701 -0.271914 0.411028 2.32211 -0.177746 0.837744 -5.02902 -0.299978 -0.0 0.0 0.0 -0.0 0.0 0.0 -1.36334e-14 3.85652e-13 7.83608e-15 22.7206 6.39058 0.49076 -3.95606 -1.74811 6.23169 0.000688238 0.582007 0.0817805 3.94499e-10 -1.27073e-10 -1.11379e-10 6.80406e-10 -2.1986e-10 -1.92966e-10 3.94502e-10 -1.27073e-10 -1.11387e-10 7.73091 5.47488 0.417314 3.94499e-10 -1.27073e-10 -1.11378e-10 2.90554 0.965183 0.102902 3.94506e-10 -1.27073e-10 -1.11375e-10 10.2786 0.731801 0.0259123 3.94495e-10 -1.27072e-10 -1.11365e-10 2.22167 -0.733487 -0.20892 -1.37485e-14 3.85653e-13 7.46685e-15 -21.8988 7.54567 -0.5016 3.82447 -1.66589 -6.04912 -0.051963 -5.06017 0.70118 3.68218e-10 4.01429e-11 3.11896e-10 6.31748e-10 7.05579e-11 5.40625e-10 3.68212e-10 4.01447e-11 3.11902e-10 -7.73091 5.47488 -0.417314 3.68219e-10 4.01423e-11 3.11892e-10 -2.90554 0.965183 -0.102902 3.68212e-10 4.01425e-11 3.11891e-10 -10.2786 0.731801 -0.0259123 3.68224e-10 4.01447e-11 3.11881e-10 -2.22167 -0.733487 0.20892 -2.03217e-16 0.0 -3.88251e-19 -0.822761 -4.89175 1.45638 0.0300531 7.84339 0.123614 -1.08195 -2.48473 -3.8597 2.03217e-16 0.0 3.88251e-19 -1.03596 -9.13758 2.33621 -0.0251423 16.0608 -0.285808 0.629462 -6.02252 0.563143
276.517 82.3239 -29.2757 -52.3585 -85.9369 50.5767 -0.901945 2.9847 -0.833061 -1.94333 0.936453 -0.410958 0.861944 4.77526 -0.366071 1.66549 -10.3382 -0.624165 -0.0 0.0 0.0 -0.0 0.0 0.0 -6.56148e-14 7.76101e-13 1.49244e-14 46.6099 13.17 1.03097 -7.72739 -3.52723 12.8382 -0.000390506 1.19613 0.168102 4.63177e-10 -2.67271e-10 -2.0853e-10 7.98151e-10 -4.62439e-10 -3.61341e-10 4.6318e-10 -2.67271e-10 -2.08536e-10 7.73091 5.47488 0.417314 4.63178e-10 -2.67271e-10 -2.08531e-10 2.90554 0.965183 0.102902 4.63185e-10 -2.67271e-10 -2.08527e-10 10.2786 0.731801 0.0259123 4.63175e-10 -2.67272e-10 -2.08517e-10 2.22167 -0.733487 -0.20892 -6.5749e-14 7.76106e-13 1.45858e-14 -44.9031 15.5174 -1.05552 7.4844 -3.36311 -12.4556 0.0297997 -10.4045 1.4605 4.09622e-10 7.95044e-11 6.19458e-10 6.99043e-10 1.39795e-10 1.0739e-09 4.09618e-10 7.95046e-11 6.19463e-10 -7.73091 5.47488 -0.417314 4.09623e-10 7.95031e-11 6.19452e-10 -2.90554 0.965183 -0.102902 4.09617e-10 7.95035e-11 6.19452e-10 -10.2786 0.731801 -0.0259123 4.0963e-10 7.95069e-11 6.19438e-10 -2.22167 -0.733487 0.20892 -2.03217e-16 0.0 -3.88251e-19 0.350005 -8.00119 2.99579 -0.00544327 18.3187 0.344603 -2.7107 -9.26073 -8.18223 2.03217e-16 0.0 3.88251e-19 0.764478 -9.22384 4.47516 -0.0275342 21.6229 -0.367542 0.82348 -10.5186 1.19846
276.515 82.311 -29.1361 -53.6628 -86.0248 51.8742 0.0590716 4.35535 -1.17489 -2.45472 1.35724 -0.533356 1.27658 6.96606 -0.536762 2.35046 -15.0854 -0.928468 -0.0 0.0 0.0 -0.0 0.0 0.0 -1.08787e-13 1.15662e-12 2.25143e-14 67.8169 19.1659 1.54901 -10.7462 -4.99668 18.7603 -0.00292157 1.74601 0.245443 5.18507e-10 -3.84469e-10 -3.39086e-10 8.92842e-10 -6.6519e-10 -5.87433e-10 5.1851e-10 -3.84468e-10 -3.3909e-10 7.73091 5.47488 0.417314 5.18508e-10 -3.84469e-10 -3.39089e-10 2.90554 0.965183 0.102902 5.18515e-10 -3.84469e-10 -3.39084e-10 10.2786 0.731801 0.0259123 5.18506e-10 -3.8447e-10 -3.39075e-10 2.22167 -0.733487 -0.20892 -1.08935e-13 1.15663e-12 2.22018e-14 -65.272 22.6298 -1.61623 10.4347 -4.77527 -18.2051 0.226991 -15.1712 2.17104 4.39715e-10 1.17313e-10 9.30715e-10 7.46883e-10 2.06299e-10 1.61331e-09 4.39712e-10 1.17312e-10 9.3072e-10 -7.73091 5.47488 -0.417314 4.39715e-10 1.17311e-10 9.30708e-10 -2.90554 0.965183 -0.102902 4.39711e-10 1.17311e-10 9.30709e-10 -10.2786 0.731801 -0.0259123 4.39724e-10 1.17316e-10 9.30693e-10 -2.22167 -0.733487 0.20892 -2.03217e-16 0.0 -3.88251e-19 1.52898 -10.7808 4.40676 -0.114589 27.6863 0.575777 -5.0551 -15.1336 -12.27 2.03217e-16 0.0 3.88251e-19 2.36702 -9.29077 6.40525 -0.0145408 26.5864 -0.449118 1.08315 -14.5273 1.78534
276.534 82.2928 -29.0034 -54.6451 -86.1068 52.8455 0.702369 5.32478 -1.39564 -2.80209 1.64815 -0.614026 1.56998 8.50124 -0.660053 2.79403 -18.4293 -1.15629 -0.0 0.0 0.0 -0.0 0.0 0.0 -1.29935e-13 1.51231e-12 3.13583e-14 82.5708 23.2086 1.93706 -12.6674 -5.92788 22.9094 -0.00559528 2.13531 0.300238 5.40465e-10 -4.44164e-10 -5.53156e-10 9.299e-10 -7.68368e-10 -9.57814e-10 5.40469e-10 -4.44164e-10 -5.53159e-10 7.73091 5.47488 0.417314 5.40467e-10 -4.44164e-10 -5.53159e-10 2.90554 0.965183 0.102902 5.40473e-10 -4.44164e-10 -5.53154e-10 10.2786 0.731801 0.0259123 5.40465e-10 -4.44166e-10 -5.53146e-10 2.22167 -0.733487 -0.20892 -1.30084e-13 1.51231e-12 3.10601e-14 -79.3524 27.6002 -2.09201 12.3335 -5.68519 -22.2571 0.439167 -18.5027 2.69571 4.41529e-10 1.51239e-10 1.25121e-09 7.46088e-10 2.65971e-10 2.16808e-09 4.41527e-10 1.51237e-10 1.25122e-09 -7.73091 5.47488 -0.417314 4.41529e-10 1.51236e-10 1.2512e-09 -2.90554 0.965183 -0.102902 4.41526e-10 1.51237e-10 1.25121e-09 -10.2786 0.731801 -0.0259123 4.41539e-10 1.51241e-10 1.25119e-09 -2.22167 -0.733487 0.20892 -2.03217e-16 0.0 -3.88251e-19 2.40623 -12.7595 5.44262 -0.246419 34.2857 0.771743 -7.21414 -19.0686 -15.3227 2.03217e-16 0.0 3.88251e-19 3.46154 -9.33389 7.81133 0.00419291 30.0535 -0.51284 1.31384 -17.3229 2.20749
276.552 82.2723 -28.8667 -55.9074 -86.2021 54.0993 0.879557 5.73379 -1.44157 -2.92155 1.75646 -0.635298 1.67783 9.11973 -0.715432 2.96012 -19.814 -1.25747 -0.0 0.0 0.0 -0.0 0.0 0.0 -1.17717e-13 1.91423e-12 4.47382e-14 88.4221 24.5108 2.08103 -13.3811 -6.26773 24.5386 -0.00693912 2.3036 0.323938 5.37329e-10 -4.10514e-10 -1.01098e-09 9.23266e-10 -7.09796e-10 -1.7496e-09 5.37332e-10 -4.10513e-10 -1.01099e-09 7.73091 5.47488 0.417314 5.37331e-10 -4.10515e-10 -1.01099e-09 2.90554 0.965183 0.102902 5.37336e-10 -4.10514e-10 -1.01098e-09 10.2786 0.731801 0.0259123 5.37328e-10 -4.10516e-10 -1.01098e-09 2.22167 -0.733487 -0.20892 -1.17846e-13 1.91423e-12 4.44381e-14 -84.7873 29.5711 -2.36876 13.0629 -6.03538 -23.895 0.541231 -19.828 2.91246 4.19411e-10 1.93751e-10 1.71999e-09 7.02703e-10 3.40813e-10 2.9785e-09 4.19408e-10 1.93749e-10 1.71999e-09 -7.73091 5.47488 -0.417314 4.1941e-10 1.93748e-10 1.71998e-09 -2.90554 0.965183 -0.102902 4.19406e-10 1.93749e-10 1.71998e-09 -10.2786 0.731801 -0.0259123 4.19419e-10 1.93753e-10 1.71997e-09 -2.22167 -0.733487 0.20892 -2.03217e-16 0.0 -3.88251e-19 2.71644 -13.6298 5.92527 -0.315839 37.0085 0.862369 -8.18281 -20.5416 -16.5856 2.03217e-16 0.0 3.88251e-19 3.83797 -9.35458 8.48812 0.0138981 31.4271 -0.540708 1.4129 -18.4238 2.36801
276.57 82.2556 -28.7327 -57.1848 -86.3014 55.3732 0.720162 5.74258 -1.36224 -2.87862 1.73437 -0.614168 1.64986 9.08345 -0.721551 2.94214 -19.7995 -1.26189 -0.0 0.0 0.0 -0.0 0.0 0.0 -8.17869e-14 2.34532e-12 6.12257e-14 87.9438 23.8572 2.0351 -13.3046 -6.23164 24.3585 -0.00695531 2.31386 0.325381 5.15237e-10 -3.108e-10 -1.63688e-09 8.83661e-10 -5.36753e-10 -2.83195e-09 5.15242e-10 -3.10799e-10 -1.63689e-09 7.73091 5.47488 0.417314 5.15241e-10 -3.10801e-10 -1.63689e-09 2.90554 0.965183 0.102902 5.15245e-10 -3.108e-10 -1.63688e-09 10.2786 0.731801 0.0259123 5.15237e-10 -3.108e-10 -1.63688e-09 2.22167 -0.733487 -0.20892 -8.18804e-14 2.34532e-12 6.0912e-14 -84.0959 29.4017 -2.47364 13.0262 -6.02851 -23.8001 0.531728 -19.7224 2.89479 3.79451e-10 2.41729e-10 2.28823e-09 6.27684e-10 4.25314e-10 3.96039e-09 3.79448e-10 2.41727e-10 2.28824e-09 -7.73091 5.47488 -0.417314 3.7945e-10 2.41726e-10 2.28822e-09 -2.90554 0.965183 -0.102902 3.79446e-10 2.41726e-10 2.28823e-09 -10.2786 0.731801 -0.0259123 3.79457e-10 2.41729e-10 2.28821e-09 -2.22167 -0.733487 0.20892 -2.03217e-16 0.0 -3.88251e-19 2.58437 -13.7137 6.00131 -0.311748 36.9627 0.857017 -8.07122 -20.3316 -16.4643 2.03217e-16 0.0 3.88251e-19 3.70019 -9.36222 8.64359 0.0125435 31.3052 -0.539779 1.39601 -18.3153 2.3328
276.592 82.2436 -28.6001 -58.5062 -86.4033 56.6961 0.432289 5.59003 -1.23823 -2.77105 1.66142 -0.577529 1.57061 8.78367 -0.706653 2.84306 -19.2184 -1.22685 -0.0 0.0 0.0 -0.0 0.0 0.0 -4.04248e-14 2.65848e-12 7.45078e-14 84.921 22.4373 1.9243 -12.912 -6.04507 23.455 -0.00638148 2.25482 0.317063 4.50962e-10 -2.05208e-10 -2.12707e-09 7.71678e-10 -3.5368e-10 -3.67948e-09 4.50967e-10 -2.05208e-10 -2.12708e-09 7.73091 5.47488 0.417314 4.50966e-10 -2.05211e-10 -2.12707e-09 2.90554 0.965183 0.102902 4.50969e-10 -2.05208e-10 -2.12707e-09 10.2786 0.731801 0.0259123 4.50961e-10 -2.05208e-10 -2.12707e-09 2.22167 -0.733487 -0.20892 -4.04816e-14 2.65848e-12 7.41758e-14 -80.9623 28.3859 -2.50331 12.6885 -5.8826 -23.0188 0.477521 -19.0496 2.78398 3.07305e-10 2.69457e-10 2.67971e-09 4.99209e-10 4.74102e-10 4.63619e-09 3.073e-10 2.69456e-10 2.67972e-09 -7.73091 5.47488 -0.417314 3.07304e-10 2.69454e-10 2.67971e-09 -2.90554 0.965183 -0.102902 3.07299e-10 2.69454e-10 2.67971e-09 -10.2786 0.731801 -0.0259123 3.07309e-10 2.69455e-10 2.6797e-09 -2.22167 -0.733487 0.20892 -2.03217e-16 0.0 -3.88251e-19 2.27118 -13.4888 5.90141 -0.277472 35.8129 0.812408 -7.51887 -19.4413 -15.7727 2.03217e-16 0.0 3.88251e-19 3.35872 -9.36554 8.58244 0.00658325 30.5834 -0.527281 1.33348 -17.7237 2.22045
276.617 82.2328 -28.4701 -59.8884 -86.501 58.0849 0.223369 5.51508 -1.15003 -2.69666 1.61713 -0.552271 1.52518 8.61167 -0.699082 2.7638 -18.9036 -1.21059 -0.0 0.0 0.0 -0.0 0.0 0.0 -1.19115e-14 2.70662e-12 7.82715e-14 83.144 21.4409 1.87031 -12.6736 -5.93125 22.9144 -0.00602223 2.21522 0.311485 3.21274e-10 -1.53926e-10 -2.17775e-09 5.4791e-10 -2.65017e-10 -3.7668e-09 3.21279e-10 -1.53926e-10 -2.17776e-09 7.73091 5.47488 0.417314 3.21278e-10 -1.53929e-10 -2.17775e-09 2.90554 0.965183 0.102902 3.2128e-10 -1.53926e-10 -2.17775e-09 10.2786 0.731801 0.0259123 3.21273e-10 -1.53925e-10 -2.17775e-09 2.22167 -0.733487 -0.20892 -1.19434e-14 2.70661e-12 7.79236e-14 -79.0554 27.8171 -2.56213 12.5085 -5.81167 -22.5986 0.447665 -18.6729 2.72237 1.88626e-10 2.51221e-10 2.6182e-09 2.95461e-10 4.41804e-10 4.52833e-09 1.8862e-10 2.5122e-10 2.61822e-09 -7.73091 5.47488 -0.417314 1.88624e-10 2.51218e-10 2.6182e-09 -2.90554 0.965183 -0.102902 1.88619e-10 2.51218e-10 2.6182e-09 -10.2786 0.731801 -0.0259123 1.88628e-10 2.51218e-10 2.61819e-09 -2.22167 -0.733487 0.20892 -2.03217e-16 0.0 -3.88251e-19 2.04635 -13.4314 5.85883 -0.259466 35.2233 0.787698 -7.17562 -18.8693 -15.3291 2.03217e-16 0.0 3.88251e-19 3.12455 -9.37238 8.60941 0.00286251 30.1569 -0.520702 1.29588 -17.3754 2.14978
